<svg width="600" height="400" viewBox="0 0 600 400" fill="none" xmlns="http://www.w3.org/2000/svg">
  <!-- 背景 -->
  <rect width="600" height="400" rx="20" fill="#E6F7FF" opacity="0.5"/>
  
  <!-- 图表元素 -->
  <rect x="100" y="150" width="400" height="200" rx="10" fill="white" stroke="#1890FF" stroke-width="2"/>
  
  <!-- 图表标题 -->
  <rect x="120" y="170" width="200" height="20" rx="4" fill="#1890FF" opacity="0.2"/>
  
  <!-- 图表柱形 -->
  <rect x="150" y="220" width="40" height="100" rx="4" fill="#1890FF" opacity="0.8"/>
  <rect x="220" y="250" width="40" height="70" rx="4" fill="#1890FF" opacity="0.6"/>
  <rect x="290" y="200" width="40" height="120" rx="4" fill="#1890FF" opacity="0.9"/>
  <rect x="360" y="270" width="40" height="50" rx="4" fill="#1890FF" opacity="0.5"/>
  
  <!-- 数据点和线 -->
  <circle cx="170" cy="180" r="5" fill="#FF4D4F"/>
  <circle cx="240" cy="210" r="5" fill="#FF4D4F"/>
  <circle cx="310" cy="160" r="5" fill="#FF4D4F"/>
  <circle cx="380" cy="230" r="5" fill="#FF4D4F"/>
  
  <path d="M170 180 L240 210 L310 160 L380 230" stroke="#FF4D4F" stroke-width="2"/>
  
  <!-- 装饰元素 -->
  <circle cx="500" cy="100" r="30" fill="#1890FF" opacity="0.1"/>
  <circle cx="520" cy="80" r="15" fill="#1890FF" opacity="0.2"/>
  
  <circle cx="80" cy="320" r="25" fill="#1890FF" opacity="0.1"/>
  <circle cx="60" cy="340" r="12" fill="#1890FF" opacity="0.2"/>
  
  <!-- 图标元素 -->
  <rect x="450" y="50" width="100" height="30" rx="15" fill="#1890FF" opacity="0.3"/>
  <rect x="50" y="50" width="80" height="30" rx="15" fill="#1890FF" opacity="0.3"/>
</svg>